<svg class="bubless" xmlns="http://www.w3.org/2000/svg" viewBox="0 0 234.37 167" width="75"><defs><style> #bubless .cls-1, #bubless .cls-2 { fill: #fff; } #bubless .cls-1 { opacity: 0.5; } </style></defs><title>Schommer Media GmbH</title><g id="Ebene_2" data-name="Ebene 2"><g id="bubbles"><g id="Ebene_2-2" data-name="Ebene 2"><g id="Ebene_1-2" data-name="Ebene 1-2"><g id="bubbles-2" data-name="bubbles"><path class="cls-1" d="M109,119.37c0,5.45-2.73,9.41-8,12-3.82,1.91-8.87,2.87-15.28,2.87H68.21a39.27,39.27,0,0,1-15.69-3c-5.73-2.6-8.59-6.55-8.59-12V101.77c0-5.32,2.86-9.41,8.59-12.14a32.68,32.68,0,0,1,15.69-3.14H85.67c15.55,0,23.33,5.05,23.33,15.28Zm-10.64,0V101c0-3.68-4.37-5.59-13-5.59H68.35a30.93,30.93,0,0,0-8.6,1.23c-3.55,1.22-5.32,2.86-5.32,5.32v17.46c0,2.32,1.77,3.95,5.46,5a34.93,34.93,0,0,0,8.46,1.1H85.4a25.3,25.3,0,0,0,7.77-1.23C96.58,123.05,98.36,121.41,98.36,119.37Z"></path><path class="cls-1" d="M201.08,119.37c0,5.45-2.73,9.41-8.05,12-3.82,1.91-8.86,2.87-15.28,2.87H160.29a39.27,39.27,0,0,1-15.69-3c-5.72-2.6-8.59-6.55-8.59-12V101.77c0-5.32,2.87-9.41,8.59-12.14a32.68,32.68,0,0,1,15.69-3.14h17.46c15.56,0,23.33,5.05,23.33,15.28v17.6Zm-10.77,0V101c0-3.82-4.23-5.73-13-5.73H160.29a31.18,31.18,0,0,0-8.59,1.23c-3.55,1.23-5.32,2.86-5.32,5.32v17.6c0,2.32,1.77,3.95,5.45,5a29.45,29.45,0,0,0,8.46,1h17.06a25,25,0,0,0,7.77-1.23C188.67,123.05,190.31,121.41,190.31,119.37Z"></path><path class="cls-1" d="M228.37,46c0,7.64-3.82,13.24-11.33,16.78-5.32,2.59-12.41,4-21.28,4H171.34a54.37,54.37,0,0,1-21.82-4.09c-8.05-3.69-12.15-9.14-12.15-16.65V21.42c0-7.51,4-13.1,12-16.92,5.87-3,13.1-4.5,21.83-4.5h24.42c21.69,0,32.6,7.09,32.6,21.28ZM213.5,46V20.33c0-5.32-6-7.92-18-7.92H171.75a39.93,39.93,0,0,0-12,1.64c-4.91,1.64-7.51,4.09-7.51,7.37V46c0,3.14,2.6,5.46,7.64,7a43.21,43.21,0,0,0,11.87,1.36h23.74a37,37,0,0,0,10.91-1.63c4.64-1.5,7.1-3.69,7.1-6.69Z"></path><path class="cls-2" d="M80.9,64H47.06C34.92,64,24.83,66,16.64,70.12,5.59,75.44,0,83.35,0,93.72v34.11C0,138.19,5.59,146,16.78,151a77.35,77.35,0,0,0,30.42,5.73H81c12.28,0,22.1-1.91,29.61-5.6,10.36-4.91,15.68-12.68,15.68-23.19V93.45Q126.13,64,80.9,64Zm33.15,67.26c0,4.91-4,8.73-11.87,11.32A58.49,58.49,0,0,1,84,145.29H44.34a69.16,69.16,0,0,1-19.78-2.46c-8.46-2.45-12.69-6.27-12.69-11.59V90.31c0-5.46,4.09-9.55,12.41-12.28A65.52,65.52,0,0,1,44.2,75.3H83.9c20,0,30.15,4.37,30.15,13.24Z"></path><path class="cls-2" d="M234.23,158.38a7.42,7.42,0,0,1-4.64,7,19.25,19.25,0,0,1-8.73,1.64H210.77a25.21,25.21,0,0,1-9-1.64c-3.27-1.5-4.91-3.82-4.91-6.82v-10.1q0-4.69,4.91-6.95a18.81,18.81,0,0,1,9-1.78h10.09c9,0,13.51,2.87,13.51,8.73v10Zm-6.14,0V147.74c0-2.18-2.45-3.27-7.5-3.27h-9.82a19.84,19.84,0,0,0-4.91.68c-2.05.68-3.14,1.64-3.14,3v10.1c0,1.36,1.09,2.18,3.14,2.86a20.26,20.26,0,0,0,4.91.55h9.82a17.57,17.57,0,0,0,4.5-.68C227.14,160.57,228.09,159.61,228.09,158.38Z"></path></g></g></g></g></g></svg>
